<svg id="smile_2" xmlns="http://www.w3.org/2000/svg" width="38.049" height="37.733" viewBox="0 0 38.049 37.733">
  <path id="Path_8190" data-name="Path 8190" d="M-577.783,128.964a18.946,18.946,0,0,1-19.025,18.866,18.946,18.946,0,0,1-19.024-18.866A18.946,18.946,0,0,1-596.808,110.1,18.946,18.946,0,0,1-577.783,128.964Z" transform="translate(615.832 -110.098)" fill="#ffd21f"/>
  <g id="Group_4772" data-name="Group 4772" transform="translate(8.982 13.976)">
    <path id="Path_8181" data-name="Path 8181" d="M-581.952,167.251h0a1.386,1.386,0,0,1-1.382-1.382v-3.317a1.386,1.386,0,0,1,1.382-1.382h0a1.386,1.386,0,0,1,1.382,1.382v3.317A1.386,1.386,0,0,1-581.952,167.251Z" transform="translate(583.334 -161.17)" fill="#403408"/>
    <path id="Path_8182" data-name="Path 8182" d="M-519.286,167.251h0a1.386,1.386,0,0,1-1.382-1.382v-3.317a1.386,1.386,0,0,1,1.382-1.382h0a1.386,1.386,0,0,1,1.382,1.382v3.317A1.386,1.386,0,0,1-519.286,167.251Z" transform="translate(537.988 -161.17)" fill="#403408"/>
  </g>
  <g id="Group_4773" data-name="Group 4773" transform="translate(11.082 23.425)">
    <path id="Path_8183" data-name="Path 8183" d="M-560.682,197.25h-14.227a.829.829,0,0,1-.829-.829.829.829,0,0,1,.829-.829h14.227a.829.829,0,0,1,.829.829A.829.829,0,0,1-560.682,197.25Z" transform="translate(575.738 -195.592)" fill="#403408"/>
  </g>
</svg>
