<svg xmlns="http://www.w3.org/2000/svg" width="62.249" height="62.248" viewBox="0 0 62.249 62.248">
  <g id="Group_3" data-name="Group 3" transform="translate(0)">
    <g id="baseline-favorite-24px" transform="translate(0 0)">
      <path id="Path_1" data-name="Path 1" d="M0,0H62.248V62.248H0Z" fill="none"/>
      <path id="Path_2" data-name="Path 2" d="M27.937,50.594,24.176,47.17C10.819,35.058,2,27.069,2,17.265A14.127,14.127,0,0,1,16.265,3,15.532,15.532,0,0,1,27.937,8.421,15.532,15.532,0,0,1,39.608,3,14.127,14.127,0,0,1,53.874,17.265c0,9.8-8.819,17.793-22.176,29.931Z" transform="translate(3.187 4.781)"/>
    </g>
    <g id="baseline-favorite-24px-2" data-name="baseline-favorite-24px" transform="translate(2.594 2.594)">
      <path id="Path_1-2" data-name="Path 1" d="M0,0H57.061V57.061H0Z" fill="none"/>
      <path id="Path_2-2" data-name="Path 2" d="M25.343,45.407l-3.385-3.051C9.937,31.564,2,24.446,2,15.71A12.651,12.651,0,0,1,14.839,3a14.037,14.037,0,0,1,10.5,4.83A14.037,14.037,0,0,1,35.848,3,12.651,12.651,0,0,1,48.686,15.71c0,8.736-7.937,15.853-19.958,26.669Z" transform="translate(3.187 4.781)" fill="#fff"/>
    </g>
  </g>
</svg>
