<svg xmlns="http://www.w3.org/2000/svg" width="15.08" height="15.08" viewBox="0 0 15.08 15.08">
  <g id="Group_2968" data-name="Group 2968" transform="translate(-600.432 -403.982)">
    <path id="Path_3354" data-name="Path 3354" d="M12.252,22.414c.175,0,.351-.331.351-.663V8.163c0-.331-.175-.663-.351-.663h-.7c-.175,0-.351.331-.351.663V21.917c0,.331.175.663.351.663h.7Z" transform="translate(623.012 399.621) rotate(90)" fill="#0e76b7"/>
    <path id="Path_3647" data-name="Path 3647" d="M12.252,22.414c.175,0,.351-.331.351-.663V8.163c0-.331-.175-.663-.351-.663h-.7c-.175,0-.351.331-.351.663V21.917c0,.331.175.663.351.663h.7Z" transform="translate(596.07 396.482)" fill="#0e76b7"/>
  </g>
</svg>
