<svg xmlns="http://www.w3.org/2000/svg" width="15.068" height="15.068" viewBox="0 0 15.068 15.068">
  <path id="Path_7930" data-name="Path 7930" d="M9.5,0h.141A.173.173,0,0,1,9.78.047a3.684,3.684,0,0,1,.657.234c.188.094.422.187.61.281a1.013,1.013,0,0,1,.516.562,1.211,1.211,0,0,1,.141.8,1.332,1.332,0,0,0,0,.608,1.115,1.115,0,0,0,.282.515,1.426,1.426,0,0,0,.328.234,1.373,1.373,0,0,0,.422.094h.141a.355.355,0,0,0,.188-.047H13.3a1.175,1.175,0,0,1,.657.187,1.489,1.489,0,0,1,.469.468c.094.187.188.421.282.608s.141.421.235.655a1.031,1.031,0,0,1,0,.749.938.938,0,0,1-.469.562A1.33,1.33,0,0,0,14,6.973,1.191,1.191,0,0,0,14,8.1a1.026,1.026,0,0,0,.469.421,1.256,1.256,0,0,1,.469.608,1.386,1.386,0,0,1,.047.749,3.661,3.661,0,0,1-.235.655c-.094.234-.188.421-.282.608a1.489,1.489,0,0,1-.469.468,1.079,1.079,0,0,1-.657.187h-.235a.173.173,0,0,1-.141-.047h-.188a1.373,1.373,0,0,0-.422.094,1.647,1.647,0,0,0-.375.234,1.115,1.115,0,0,0-.282.515,1.332,1.332,0,0,0,0,.608,1.054,1.054,0,0,1-.094.749,1.022,1.022,0,0,1-.516.562c-.188.094-.422.187-.61.281s-.422.14-.657.234a.173.173,0,0,0-.141.047H9.545a1.448,1.448,0,0,1-.61-.14,1.836,1.836,0,0,1-.469-.374.919.919,0,0,0-.422-.421,1.2,1.2,0,0,0-1.126,0,.919.919,0,0,0-.422.421.827.827,0,0,1-.422.374,1.3,1.3,0,0,1-.61.14H5.322a.173.173,0,0,1-.141-.047,3.684,3.684,0,0,1-.657-.234c-.188-.094-.422-.187-.61-.281a1.013,1.013,0,0,1-.516-.562A1.081,1.081,0,0,1,3.3,13.2a1.328,1.328,0,0,0,0-.608,1.115,1.115,0,0,0-.282-.515,1.426,1.426,0,0,0-.328-.234,1.051,1.051,0,0,0-.469-.14H2.085a.355.355,0,0,0-.188.047H1.663a1.175,1.175,0,0,1-.657-.187,1.489,1.489,0,0,1-.469-.468C.443,10.9.349,10.67.255,10.482c-.094-.234-.141-.421-.235-.655a1.157,1.157,0,0,1,0-.8A.823.823,0,0,1,.49,8.47a1.33,1.33,0,0,0,.469-.421A1.243,1.243,0,0,0,1.1,7.487a1.243,1.243,0,0,0-.141-.562A1.026,1.026,0,0,0,.49,6.5,1.256,1.256,0,0,1,.02,5.9a1.768,1.768,0,0,1,0-.7,3.661,3.661,0,0,1,.235-.655c.094-.234.188-.421.282-.655a1.489,1.489,0,0,1,.469-.468,1.079,1.079,0,0,1,.657-.187H1.8c0,.047.047.047.094.047a.173.173,0,0,1,.141.047h.188a1.373,1.373,0,0,0,.422-.094.543.543,0,0,0,.328-.234.924.924,0,0,0,.282-.515,1.328,1.328,0,0,0,0-.608.858.858,0,0,1,.094-.749A1.022,1.022,0,0,1,3.868.562C4.1.468,4.29.374,4.478.281A2.718,2.718,0,0,1,5.135.047.173.173,0,0,0,5.275,0h.141a1.448,1.448,0,0,1,.61.14A1.836,1.836,0,0,1,6.5.515a.919.919,0,0,0,.422.421,1.252,1.252,0,0,0,.563.14,1.252,1.252,0,0,0,.563-.14A.919.919,0,0,0,8.466.515.827.827,0,0,1,8.888.14,1.3,1.3,0,0,1,9.5,0ZM5.463.936h0c-.235.047-.422.14-.61.187L4.29,1.4c-.047,0-.047.047-.094.094a.353.353,0,0,0-.047.187,2.093,2.093,0,0,1,0,1.076,2.292,2.292,0,0,1-.516.936,2.2,2.2,0,0,1-.657.374,1.38,1.38,0,0,1-.751.187H1.944a.668.668,0,0,0-.282-.094.173.173,0,0,0-.141.047.361.361,0,0,0-.141.094,2.858,2.858,0,0,0-.235.562,2.633,2.633,0,0,0-.188.562v.14c.047.047.047.094.094.14a2.165,2.165,0,0,1,.8.8,1.962,1.962,0,0,1,.282.983,1.838,1.838,0,0,1-.282.983,2.161,2.161,0,0,1-.8.8c-.047,0-.047.047-.094.094V9.5c.047.187.141.421.188.562a2.347,2.347,0,0,0,.235.608l.094.094a.173.173,0,0,0,.141.047,3,3,0,0,0,.328-.094h.282a2.016,2.016,0,0,1,1.408.562,1.722,1.722,0,0,1,.516.889,2.091,2.091,0,0,1,0,1.076.361.361,0,0,0,.047.14c.047.047.094.094.094.14l.563.281a2.65,2.65,0,0,0,.563.187h0a.173.173,0,0,0,.141-.047.145.145,0,0,1,.094-.047,2.165,2.165,0,0,1,.8-.8,2.013,2.013,0,0,1,1.032-.281,1.738,1.738,0,0,1,.985.281,2.161,2.161,0,0,1,.8.8.164.164,0,0,0,.094.047.173.173,0,0,0,.141.047h0c.188-.047.422-.14.563-.187l.563-.281a.1.1,0,0,0,.094-.094.172.172,0,0,0,.047-.14,2.093,2.093,0,0,1,0-1.076,2.292,2.292,0,0,1,.516-.936,1.969,1.969,0,0,1,.657-.421,2.2,2.2,0,0,1,.8-.14h.282c.094,0,.188.047.282.047a.173.173,0,0,0,.141-.047c.047-.047.094-.047.094-.094l.282-.562A2.633,2.633,0,0,0,14,9.5v-.14c-.047-.047-.047-.094-.094-.14a2.165,2.165,0,0,1-.8-.8,2,2,0,0,1-.282-1.03,1.727,1.727,0,0,1,.282-.983,1.77,1.77,0,0,1,.8-.749c.047,0,.047-.047.094-.094v-.14c-.047-.187-.141-.374-.188-.562l-.282-.562-.094-.094a.173.173,0,0,0-.141-.047c-.094,0-.188.047-.282.047h-.282a1.95,1.95,0,0,1-.751-.14,1.969,1.969,0,0,1-.657-.421,1.722,1.722,0,0,1-.516-.889,2.091,2.091,0,0,1,0-1.076.172.172,0,0,0-.047-.14q-.07-.14-.141-.14l-.563-.281A2.65,2.65,0,0,0,9.5.936h0a.173.173,0,0,0-.141.047.145.145,0,0,1-.094.047,2.165,2.165,0,0,1-.8.8,2.013,2.013,0,0,1-1.032.281,1.738,1.738,0,0,1-.985-.281,2.161,2.161,0,0,1-.8-.8A.164.164,0,0,0,5.557.983C5.557.936,5.51.936,5.463.936ZM7.48,4.212a3.591,3.591,0,0,1,1.267.234,3.342,3.342,0,0,1,1.032.7,4,4,0,0,1,.7,1.03,3.133,3.133,0,0,1,.282,1.31,3.565,3.565,0,0,1-.235,1.263,3.333,3.333,0,0,1-.7,1.03,4.014,4.014,0,0,1-1.032.7,3.5,3.5,0,0,1-1.314.281,3.59,3.59,0,0,1-1.267-.234,3.342,3.342,0,0,1-1.032-.7,4,4,0,0,1-.7-1.03A3.133,3.133,0,0,1,4.2,7.487a3.565,3.565,0,0,1,.235-1.263,3.333,3.333,0,0,1,.7-1.03,4.014,4.014,0,0,1,1.032-.7A3.155,3.155,0,0,1,7.48,4.212ZM5.791,5.85a2.267,2.267,0,0,0-.7,1.638,2.192,2.192,0,0,0,.7,1.638,2.279,2.279,0,0,0,1.642.7,2.2,2.2,0,0,0,1.642-.7,2.267,2.267,0,0,0,.7-1.638,2.192,2.192,0,0,0-.7-1.638,2.272,2.272,0,0,0-3.284,0Z" transform="translate(0.05)" fill="#333"/>
</svg>
