<svg xmlns="http://www.w3.org/2000/svg" width="18.638" height="15.201" viewBox="0 0 18.638 15.201"><defs><style>.a{fill:#0e76b7;}</style></defs><g transform="translate(-24 16)"><path class="a" d="M40.191-9.652a4.605,4.605,0,0,0,.116-1.107A5.257,5.257,0,0,0,35.066-16a5.269,5.269,0,0,0-4.951,3.495h-.291A3.5,3.5,0,0,0,26.33-9.011a2.2,2.2,0,0,0,.029.437A3.383,3.383,0,0,0,24-5.371a3.368,3.368,0,0,0,3.349,3.349h2.868l-.585-.585a1.606,1.606,0,0,1-.414-.609h-1.87a2.156,2.156,0,0,1-2.184-2.155,2.186,2.186,0,0,1,.644-1.541,2.186,2.186,0,0,1,1.541-.644h.67a2.342,2.342,0,0,1-.524-1.456,2.337,2.337,0,0,1,2.33-2.33,2.179,2.179,0,0,1,1.165.32,4.1,4.1,0,0,1,4.077-3.815,4.089,4.089,0,0,1,4.077,4.077,4.046,4.046,0,0,1-.5,1.951h.029a2.8,2.8,0,0,1,2.8,2.8,2.8,2.8,0,0,1-2.8,2.8H37.419a1.606,1.606,0,0,1-.414.609l-.585.585h2.257a3.965,3.965,0,0,0,3.96-3.96A4,4,0,0,0,40.191-9.652Z"/><path class="a" d="M50.625,14.164,49.14,15.65V10.582a.582.582,0,1,0-1.165,0V15.65L46.49,14.164a.577.577,0,0,0-.815.815l2.475,2.475a.563.563,0,0,0,.815,0l2.475-2.475a.577.577,0,0,0-.815-.815Z" transform="translate(-15.239 -18.428)"/></g></svg>