<svg xmlns="http://www.w3.org/2000/svg" width="14.51" height="14.501" viewBox="0 0 14.51 14.501">
  <path id="Union_2283" data-name="Union 2283" d="M-5149.508-457.5a.511.511,0,0,1-.483-.6l.725-1.812,1.088-2.839,8.579-8.519a2.387,2.387,0,0,1,1.691-.725,2.286,2.286,0,0,1,1.692.725,2.335,2.335,0,0,1,0,3.384l-8.458,8.579-2.839,1.088-1.812.725Zm1.149-2.054-.3.725.725-.3,2.236-.906a3.994,3.994,0,0,0-.726-1.028,3.979,3.979,0,0,0-1.027-.725Zm1.389-3.021a3.978,3.978,0,0,1,1.208.846,5.4,5.4,0,0,1,.907,1.148l7.492-7.431a5.438,5.438,0,0,0-.846-1.209,5.153,5.153,0,0,0-1.268-.846Zm8.217-8.217a8.622,8.622,0,0,1,1.209.846,5.142,5.142,0,0,1,.846,1.148,1.117,1.117,0,0,0,.241-.786,1.245,1.245,0,0,0-.422-1.027,1.415,1.415,0,0,0-1.028-.423A1.388,1.388,0,0,0-5138.753-470.792Zm-6.283,8.4a.474.474,0,0,1,0-.665l5.438-5.5a.473.473,0,0,1,.665,0,.474.474,0,0,1,0,.665l-5.437,5.5a.468.468,0,0,1-.332.136A.468.468,0,0,1-5145.036-462.394Z" transform="translate(5150 472.001)" fill="#0e76b7"/>
</svg>
