<?xml version="1.0" encoding="utf-8"?>
<!-- Generator: Adobe Illustrator 23.0.2, SVG Export Plug-In . SVG Version: 6.00 Build 0)  -->
<svg version="1.1" id="Warstwa_1" xmlns="http://www.w3.org/2000/svg" xmlns:xlink="http://www.w3.org/1999/xlink" x="0px" y="0px"
	 viewBox="0 0 595.28 841.89" style="enable-background:new 0 0 595.28 841.89;" xml:space="preserve">
<style type="text/css">
	.st0{fill:none;stroke:#000000;stroke-miterlimit:10;}
	.st1{stroke:#000000;stroke-miterlimit:10;}
</style>
<g>
	<g>
		<g>
			<path d="M290.78,615.82l-27.54-4.43l-0.2-0.21l-37.55-41.31l-8.12-58.03l-24.31-39.27l-0.02-0.18l-4.38-41.24l0.02-0.13
				l18.01-90.08l-14.14-28.88l-38.69-31.2l-0.07-0.24l-18.69-61.67l-8.22-83.54l46.93,12.3l43.76,36.88l0.08,0.18l51.52,118.58
				l21.98,3.03l22.37-4.86l50.38-118.81l46.58-36.41l44.07-10.87l-6.38,86.71l-23.12,57.49l-36.17,33.06l-14.14,26.42l17.42,95.19
				l-0.02,0.13l-6.88,43.14l-0.08,0.13l-22.97,37.24l-8.12,56.16l-35.86,38.38L290.78,615.82z M264.05,609.88l26.66,4.29l26.71-6.13
				l35.17-37.65l8.09-56l0.08-0.15l22.97-37.24l6.8-42.69l-17.47-95.46l0.13-0.24l14.5-27.01l36-32.9l22.94-57.04l6.13-84.11
				l-41.73,10.28l-45.8,35.87l-50.55,119.2l-23.46,5.11l-23.17-3.2l-0.18-0.42l-51.64-118.83l-43.34-36.51l-44.17-11.5l7.99,81.08
				l18.58,61.28l38.57,31.11l14.53,29.69l-18.11,90.49l4.33,40.82l24.29,39.24l8.09,57.87L264.05,609.88z"/>
		</g>
		<g>
			<path d="M291.35,570.27l-28.78-17.39l-2.2-19.77l16.55,11.01l0.1,0.18L291.35,570.27z M264.08,551.9l22.89,13.83l-11.31-20.48
				l-13.31-8.85L264.08,551.9z"/>
		</g>
		<g>
			<path d="M290.29,570.62l14.64-27.38l14.25-9.83l-1.11,17.68L290.29,570.62z M306.18,544.35l-11.24,21l21.56-15.15l0.85-13.57
				L306.18,544.35z"/>
		</g>
		<g>
			<rect x="279.2" y="579.43" transform="matrix(0.042 -0.9991 0.9991 0.042 -301.6058 845.9385)" width="22.24" height="1.63"/>
		</g>
		<g>
			<rect x="296.97" y="586.41" transform="matrix(0.4518 -0.8921 0.8921 0.4518 -367.8994 592.0393)" width="1.63" height="17.93"/>
		</g>
		<g>
			<rect x="273.51" y="594.92" transform="matrix(0.8672 -0.498 0.498 0.8672 -259.18 219.6853)" width="17.49" height="1.63"/>
		</g>
		<g>
			<rect x="305.66" y="596.67" transform="matrix(0.9883 -0.1524 0.1524 0.9883 -87.3441 55.433)" width="24.55" height="1.63"/>
		</g>
		<g>
			<rect x="261.41" y="585.08" transform="matrix(0.1846 -0.9828 0.9828 0.1846 -373.6452 745.1046)" width="1.63" height="25.31"/>
		</g>
		<g>
			<path class="st0" d="M291.2,307.2"/>
		</g>
	</g>
	<ellipse class="st1" cx="205.25" cy="352.83" rx="6.19" ry="11.45"/>
	<g>
		<g>
			<path class="st1" d="M385.58,367.01l6.72,29.13c0,0,2.82,3.36,1.75,7.66c-1.07,4.3-16.25,12.49-16.25,12.49s-0.67,0.67-2.01-1.88
				c-1.34-2.55-4.43-27.94-4.43-27.94s2.55-9.27,3.09-11.42C374.97,372.9,385.58,367.01,385.58,367.01z"/>
			<path class="st1" d="M358.11,424.82c0,0-1.82,2.7-7.83,0c-6.01-2.7-13.28-6.39-13.28-6.39s-1.68-1.42-1.26-3.41
				c0.42-1.99,20.96-46.42,20.96-46.42h4.75l4.05,2.98l10.48,0.57L358.11,424.82z"/>
			<path class="st1" d="M348.91,343.89c0,0,2.69-9,6.98-7.79c4.3,1.21,8.73-1.86,14.37,3.84c5.64,5.7,11.55,17.92,11.55,17.92
				l3.76,9.15l-21.89,11l-2.28-6.31l5.84-3.36l-1.54-7.39c0,0-3.09-8.06-4.03-8.6s1.07,1.61-1.88-1.61
				C356.84,347.52,348.91,343.89,348.91,343.89z"/>
			<path class="st1" d="M376.04,349.71l-9.94-12c0,0,6.85-5.95,8.33-5.36c1.48,0.59,6.98,3.14,6.98,3.14l0.54,5.52L376.04,349.71z"
				/>
			<path class="st1" d="M385.58,367.01c0,0,5.37-5.25,6.45-8.88c1.07-3.63,6.72-15.85,3.76-19.07c-0.02-0.02-3.27-4.42-3.72-5.15
				c-1.37-2.19-3.84-2.77-5.01-3.04c-3.98-0.94-7.39,0.84-8.46,1.45l-1.88,14.27L385.58,367.01z"/>
			<path class="st1" d="M392.52,334.63"/>
		</g>
		<ellipse class="st1" cx="366.77" cy="361.28" rx="6.19" ry="12.58"/>
		<path class="st1" d="M205.73,341.99c0,0,104.79,16.63,167.31-2.12l3.8,21.07l0.59,3.25c0,0-71.86,21.77-174.4,0"/>
	</g>
</g>
</svg>
