<svg xmlns="http://www.w3.org/2000/svg" width="13.004" height="13.998" viewBox="0 0 13.004 13.998">
  <g id="Group_3360" data-name="Group 3360" transform="translate(-1256.998 -332.002)">
    <path id="Union_2037" data-name="Union 2037" d="M10504.6,22238h-6.134a1.028,1.028,0,0,1-1-1v-8.734a.289.289,0,0,1,.268-.268h.53a.289.289,0,0,1,.269.268V22237h7.936v-8.734a.289.289,0,0,1,.269-.268h.529c.135,0,.2.135.335.268V22237a1.028,1.028,0,0,1-1,1Zm-.865-2.936a.283.283,0,0,1-.268-.262v-5.537a.287.287,0,0,1,.268-.268h.536a.282.282,0,0,1,.262.268v5.469a.282.282,0,0,1-.262.268v.063Zm-3-.062a.286.286,0,0,1-.262-.268v-5.469a.286.286,0,0,1,.262-.268h.536a.287.287,0,0,1,.268.268v5.469a.287.287,0,0,1-.268.268Zm7-7.936h-11.47a.289.289,0,0,1-.268-.268v-.531a.289.289,0,0,1,.268-.268h3.6v-1a1.024,1.024,0,0,1,1-1h3.271a1.024,1.024,0,0,1,1,1v1h3.6a.289.289,0,0,1,.269.268v.531a.289.289,0,0,1-.269.268Zm-6.871-1.066h3.271v-1h-3.271Z" transform="translate(-9239 -21892)" fill="#0e76b7"/>
  </g>
</svg>
