<svg xmlns="http://www.w3.org/2000/svg" width="223.859" height="34.251" viewBox="0 0 223.859 34.251">
  <g id="Group_3819" data-name="Group 3819" transform="translate(-1114.87 -653.874)">
    <path id="Path_17" data-name="Path 17" d="M17.8,24.206l9.151,6.66-3.5-10.754L32.6,13.6H21.376L17.8,2.5,14.223,13.6H3l9.151,6.512-3.5,10.754Z" transform="translate(1115 654.635)" fill="#e2c404" stroke="#e2c404" stroke-width="2"/>
    <path id="Path_17-2" data-name="Path 17" d="M17.8,24.206l9.151,6.66-3.5-10.754L32.6,13.6H21.376L17.8,2.5,14.223,13.6H3l9.151,6.512-3.5,10.754Z" transform="translate(1162 654.635)" fill="#e2c404" stroke="#e2c404" stroke-width="2"/>
    <path id="Path_17-3" data-name="Path 17" d="M17.8,24.206l9.151,6.66-3.5-10.754L32.6,13.6H21.376L17.8,2.5,14.223,13.6H3l9.151,6.512-3.5,10.754Z" transform="translate(1209 654.635)" fill="#e2c404" stroke="#e2c404" stroke-width="2"/>
    <path id="Path_17-4" data-name="Path 17" d="M17.8,24.206l9.151,6.66-3.5-10.754L32.6,13.6H21.376L17.8,2.5,14.223,13.6H3l9.151,6.512-3.5,10.754Z" transform="translate(1256 654.635)" fill="#e2c404" stroke="#e2c404" stroke-width="2"/>
    <path id="Path_17-5" data-name="Path 17" d="M17.8,24.206l9.151,6.66-3.5-10.754L32.6,13.6H21.376L17.8,2.5,14.223,13.6H3l9.151,6.512-3.5,10.754Z" transform="translate(1303 654.635)" fill="#fff" stroke="#0e76b7" stroke-width="2"/>
  </g>
</svg>
