<svg id="Duplicate" xmlns="http://www.w3.org/2000/svg" width="16" height="16" viewBox="0 0 16 16">
  <path id="Path_8258" data-name="Path 8258" d="M12,10.9V6.05l-.18-.03A2.726,2.726,0,0,0,11.5,6H11v4.9a.1.1,0,0,1-.1.1H1.1a.1.1,0,0,1-.1-.1V1.1A.094.094,0,0,1,1.1,1h9.8a.094.094,0,0,1,.1.1V3h.5a4.07,4.07,0,0,1,.5.03V1.1A1.1,1.1,0,0,0,10.9,0H1.1A1.1,1.1,0,0,0,0,1.1v9.8A1.1,1.1,0,0,0,1.1,12h9.8A1.1,1.1,0,0,0,12,10.9Z" fill="#0e76b7"/>
  <path id="Path_8259" data-name="Path 8259" d="M15,5.68A4.373,4.373,0,0,0,14.32,5,4.28,4.28,0,0,0,13,4.26a4.16,4.16,0,0,0-1-.23A4.07,4.07,0,0,0,11.5,4H9.294l.561-.561a.5.5,0,0,0-.707-.707L7.733,4.146a.5.5,0,0,0,0,.707L9.147,6.267a.5.5,0,0,0,.707-.707L9.294,5H11.5a2.737,2.737,0,0,1,.5.04A3.5,3.5,0,0,1,15,8.5v6.4a.108.108,0,0,1-.1.1H5.1a.108.108,0,0,1-.1-.1V13H4v1.9A1.1,1.1,0,0,0,5.1,16h9.8A1.1,1.1,0,0,0,16,14.9V8.5A4.428,4.428,0,0,0,15,5.68Z" fill="#0e76b7"/>
</svg>
