<svg xmlns="http://www.w3.org/2000/svg" width="368.303" height="72.623" viewBox="0 0 368.303 72.623">
  <g id="Group_381" data-name="Group 381" transform="translate(-920.509 -302.377)">
    <g id="Group_229" data-name="Group 229" transform="translate(920.509 302.377)">
      <g id="Group_50" data-name="Group 50" transform="translate(0 0)">
        <g id="baseline-favorite-24px">
          <path id="Path_1" data-name="Path 1" d="M0,0H72.623V72.623H0Z" fill="none"/>
          <path id="Path_2" data-name="Path 2" d="M33.124,60.969,28.611,56.8C12.582,42.046,2,32.316,2,20.375A17.08,17.08,0,0,1,19.118,3,18.528,18.528,0,0,1,33.124,9.6,18.528,18.528,0,0,1,47.13,3,17.08,17.08,0,0,1,64.248,20.375c0,11.941-10.582,21.671-26.611,36.456Z" transform="translate(3.187 4.781)"/>
        </g>
        <g id="baseline-favorite-24px-2" data-name="baseline-favorite-24px" transform="translate(2.594 2.594)">
          <path id="Path_1-2" data-name="Path 1" d="M0,0H67.436V67.436H0Z" fill="none"/>
          <path id="Path_2-2" data-name="Path 2" d="M30.531,55.782l-4.137-3.8C11.7,38.552,2,29.693,2,18.82A15.6,15.6,0,0,1,17.692,3,17.029,17.029,0,0,1,30.531,9.012,17.029,17.029,0,0,1,43.369,3,15.6,15.6,0,0,1,59.061,18.82c0,10.873-9.7,19.732-24.394,33.193Z" transform="translate(3.187 4.781)" fill="#fff"/>
        </g>
      </g>
      <g id="baseline-favorite-24px-3" data-name="baseline-favorite-24px" transform="translate(2.594 2.594)">
        <path id="Path_1-3" data-name="Path 1" d="M0,0H67.436V67.436H0Z" fill="none"/>
        <path id="Path_2-3" data-name="Path 2" d="M30.531,55.782l-4.137-3.8C11.7,38.552,2,29.693,2,18.82A15.6,15.6,0,0,1,17.692,3,17.029,17.029,0,0,1,30.531,9.012,17.029,17.029,0,0,1,43.369,3,15.6,15.6,0,0,1,59.061,18.82c0,10.873-9.7,19.732-24.394,33.193Z" transform="translate(3.187 4.781)" fill="red"/>
      </g>
      <g id="baseline-favorite-24px-4" data-name="baseline-favorite-24px" transform="translate(5.187 5.187)">
        <path id="Path_1-4" data-name="Path 1" d="M0,0H62.248V62.248H0Z" fill="none"/>
        <path id="Path_2-4" data-name="Path 2" d="M27.937,50.594,24.176,47.17C10.819,35.058,2,27.069,2,17.265A14.127,14.127,0,0,1,16.265,3,15.532,15.532,0,0,1,27.937,8.421,15.532,15.532,0,0,1,39.608,3,14.127,14.127,0,0,1,53.874,17.265c0,9.8-8.819,17.793-22.176,29.931Z" transform="translate(3.187 4.781)" fill="red"/>
      </g>
    </g>
    <g id="Group_230" data-name="Group 230" transform="translate(995.726 302.377)">
      <g id="Group_50-2" data-name="Group 50" transform="translate(0 0)">
        <g id="baseline-favorite-24px-5" data-name="baseline-favorite-24px">
          <path id="Path_1-5" data-name="Path 1" d="M0,0H72.623V72.623H0Z" fill="none"/>
          <path id="Path_2-5" data-name="Path 2" d="M33.124,60.969,28.611,56.8C12.582,42.046,2,32.316,2,20.375A17.08,17.08,0,0,1,19.118,3,18.528,18.528,0,0,1,33.124,9.6,18.528,18.528,0,0,1,47.13,3,17.08,17.08,0,0,1,64.248,20.375c0,11.941-10.582,21.671-26.611,36.456Z" transform="translate(3.187 4.781)"/>
        </g>
        <g id="baseline-favorite-24px-6" data-name="baseline-favorite-24px" transform="translate(2.594 2.594)">
          <path id="Path_1-6" data-name="Path 1" d="M0,0H67.436V67.436H0Z" fill="none"/>
          <path id="Path_2-6" data-name="Path 2" d="M30.531,55.782l-4.137-3.8C11.7,38.552,2,29.693,2,18.82A15.6,15.6,0,0,1,17.692,3,17.029,17.029,0,0,1,30.531,9.012,17.029,17.029,0,0,1,43.369,3,15.6,15.6,0,0,1,59.061,18.82c0,10.873-9.7,19.732-24.394,33.193Z" transform="translate(3.187 4.781)" fill="#fff"/>
        </g>
      </g>
      <g id="baseline-favorite-24px-7" data-name="baseline-favorite-24px" transform="translate(2.594 2.594)">
        <path id="Path_1-7" data-name="Path 1" d="M0,0H67.436V67.436H0Z" fill="none"/>
        <path id="Path_2-7" data-name="Path 2" d="M30.531,55.782l-4.137-3.8C11.7,38.552,2,29.693,2,18.82A15.6,15.6,0,0,1,17.692,3,17.029,17.029,0,0,1,30.531,9.012,17.029,17.029,0,0,1,43.369,3,15.6,15.6,0,0,1,59.061,18.82c0,10.873-9.7,19.732-24.394,33.193Z" transform="translate(3.187 4.781)" fill="red"/>
      </g>
      <g id="baseline-favorite-24px-8" data-name="baseline-favorite-24px" transform="translate(5.187 5.187)">
        <path id="Path_1-8" data-name="Path 1" d="M0,0H62.248V62.248H0Z" fill="none"/>
        <path id="Path_2-8" data-name="Path 2" d="M27.937,50.594,24.176,47.17C10.819,35.058,2,27.069,2,17.265A14.127,14.127,0,0,1,16.265,3,15.532,15.532,0,0,1,27.937,8.421,15.532,15.532,0,0,1,39.608,3,14.127,14.127,0,0,1,53.874,17.265c0,9.8-8.819,17.793-22.176,29.931Z" transform="translate(3.187 4.781)" fill="red"/>
      </g>
    </g>
    <g id="Group_231" data-name="Group 231" transform="translate(1070.943 302.377)">
      <g id="Group_50-3" data-name="Group 50" transform="translate(0 0)">
        <g id="baseline-favorite-24px-9" data-name="baseline-favorite-24px">
          <path id="Path_1-9" data-name="Path 1" d="M0,0H72.623V72.623H0Z" fill="none"/>
          <path id="Path_2-9" data-name="Path 2" d="M33.124,60.969,28.611,56.8C12.582,42.046,2,32.316,2,20.375A17.08,17.08,0,0,1,19.118,3,18.528,18.528,0,0,1,33.124,9.6,18.528,18.528,0,0,1,47.13,3,17.08,17.08,0,0,1,64.248,20.375c0,11.941-10.582,21.671-26.611,36.456Z" transform="translate(3.187 4.781)"/>
        </g>
        <g id="baseline-favorite-24px-10" data-name="baseline-favorite-24px" transform="translate(2.594 2.594)">
          <path id="Path_1-10" data-name="Path 1" d="M0,0H67.436V67.436H0Z" fill="none"/>
          <path id="Path_2-10" data-name="Path 2" d="M30.531,55.782l-4.137-3.8C11.7,38.552,2,29.693,2,18.82A15.6,15.6,0,0,1,17.692,3,17.029,17.029,0,0,1,30.531,9.012,17.029,17.029,0,0,1,43.369,3,15.6,15.6,0,0,1,59.061,18.82c0,10.873-9.7,19.732-24.394,33.193Z" transform="translate(3.187 4.781)" fill="#fff"/>
        </g>
      </g>
      <g id="baseline-favorite-24px-11" data-name="baseline-favorite-24px" transform="translate(2.594 2.594)">
        <path id="Path_1-11" data-name="Path 1" d="M0,0H67.436V67.436H0Z" fill="none"/>
        <path id="Path_2-11" data-name="Path 2" d="M30.531,55.782l-4.137-3.8C11.7,38.552,2,29.693,2,18.82A15.6,15.6,0,0,1,17.692,3,17.029,17.029,0,0,1,30.531,9.012,17.029,17.029,0,0,1,43.369,3,15.6,15.6,0,0,1,59.061,18.82c0,10.873-9.7,19.732-24.394,33.193Z" transform="translate(3.187 4.781)" fill="red"/>
      </g>
      <g id="baseline-favorite-24px-12" data-name="baseline-favorite-24px" transform="translate(5.187 5.187)">
        <path id="Path_1-12" data-name="Path 1" d="M0,0H62.248V62.248H0Z" fill="none"/>
        <path id="Path_2-12" data-name="Path 2" d="M27.937,50.594,24.176,47.17C10.819,35.058,2,27.069,2,17.265A14.127,14.127,0,0,1,16.265,3,15.532,15.532,0,0,1,27.937,8.421,15.532,15.532,0,0,1,39.608,3,14.127,14.127,0,0,1,53.874,17.265c0,9.8-8.819,17.793-22.176,29.931Z" transform="translate(3.187 4.781)" fill="red"/>
      </g>
    </g>
    <g id="baseline-favorite-24px-13" data-name="baseline-favorite-24px" transform="translate(1151.347 307.564)">
      <path id="Path_1-13" data-name="Path 1" d="M0,0H62.248V62.248H0Z" fill="none"/>
      <path id="Path_2-13" data-name="Path 2" d="M27.937,50.594,24.176,47.17C10.819,35.058,2,27.069,2,17.265A14.127,14.127,0,0,1,16.265,3,15.532,15.532,0,0,1,27.937,8.421,15.532,15.532,0,0,1,39.608,3,14.127,14.127,0,0,1,53.874,17.265c0,9.8-8.819,17.793-22.176,29.931Z" transform="translate(3.187 4.781)" fill="red"/>
    </g>
    <g id="baseline-favorite-24px-14" data-name="baseline-favorite-24px" transform="translate(1226.564 307.564)">
      <path id="Path_1-14" data-name="Path 1" d="M0,0H62.248V62.248H0Z" fill="none"/>
      <path id="Path_2-14" data-name="Path 2" d="M27.937,50.594,24.176,47.17C10.819,35.058,2,27.069,2,17.265A14.127,14.127,0,0,1,16.265,3,15.532,15.532,0,0,1,27.937,8.421,15.532,15.532,0,0,1,39.608,3,14.127,14.127,0,0,1,53.874,17.265c0,9.8-8.819,17.793-22.176,29.931Z" transform="translate(3.187 4.781)" fill="red"/>
    </g>
  </g>
</svg>
