<svg xmlns="http://www.w3.org/2000/svg" width="148" height="28" viewBox="0 0 148 28">
  <g id="Group_381" data-name="Group 381" transform="translate(-178 -698)">
    <g id="Group_49" data-name="Group 49" transform="translate(-169 200)">
      <g id="baseline-star_rate-18px" transform="translate(347 498)">
        <path id="Path_13" data-name="Path 13" d="M12.333,16.189l5.771,4.2L15.9,13.607,21.667,9.5H14.589l-2.256-7-2.256,7H3l5.771,4.107L6.562,20.389Z" transform="translate(1.667 1.389)" fill="#e2c404"/>
        <path id="Path_14" data-name="Path 14" d="M0,0H28V28H0Z" fill="none"/>
      </g>
      <g id="baseline-star_rate-18px-2" data-name="baseline-star_rate-18px" transform="translate(347 498)">
        <path id="Path_13-2" data-name="Path 13" d="M12.333,16.189l5.771,4.2L15.9,13.607,21.667,9.5H14.589l-2.256-7-2.256,7H3l5.771,4.107L6.562,20.389Z" transform="translate(1.667 1.389)" fill="#e2c404"/>
        <path id="Path_14-2" data-name="Path 14" d="M0,0H28V28H0Z" fill="none"/>
      </g>
      <g id="baseline-star_rate-18px-3" data-name="baseline-star_rate-18px" transform="translate(351 502)">
        <path id="Path_13-3" data-name="Path 13" d="M9.667,12.278l4.122,3-1.578-4.844L16.333,7.5H11.278l-1.611-5-1.611,5H3l4.122,2.933L5.544,15.278Z" transform="translate(0.333 0.278)" fill="#e2c404"/>
        <path id="Path_14-3" data-name="Path 14" d="M0,0H20V20H0Z" fill="none"/>
      </g>
    </g>
    <g id="Group_49-2" data-name="Group 49" transform="translate(-139 200)">
      <g id="baseline-star_rate-18px-4" data-name="baseline-star_rate-18px" transform="translate(347 498)">
        <path id="Path_13-4" data-name="Path 13" d="M12.333,16.189l5.771,4.2L15.9,13.607,21.667,9.5H14.589l-2.256-7-2.256,7H3l5.771,4.107L6.562,20.389Z" transform="translate(1.667 1.389)" fill="#e2c404"/>
        <path id="Path_14-4" data-name="Path 14" d="M0,0H28V28H0Z" fill="none"/>
      </g>
      <g id="baseline-star_rate-18px-5" data-name="baseline-star_rate-18px" transform="translate(347 498)">
        <path id="Path_13-5" data-name="Path 13" d="M12.333,16.189l5.771,4.2L15.9,13.607,21.667,9.5H14.589l-2.256-7-2.256,7H3l5.771,4.107L6.562,20.389Z" transform="translate(1.667 1.389)" fill="#e2c404"/>
        <path id="Path_14-5" data-name="Path 14" d="M0,0H28V28H0Z" fill="none"/>
      </g>
      <g id="baseline-star_rate-18px-6" data-name="baseline-star_rate-18px" transform="translate(351 502)">
        <path id="Path_13-6" data-name="Path 13" d="M9.667,12.278l4.122,3-1.578-4.844L16.333,7.5H11.278l-1.611-5-1.611,5H3l4.122,2.933L5.544,15.278Z" transform="translate(0.333 0.278)" fill="#e2c404"/>
        <path id="Path_14-6" data-name="Path 14" d="M0,0H20V20H0Z" fill="none"/>
      </g>
    </g>
    <g id="Group_49-3" data-name="Group 49" transform="translate(-109 200)">
      <g id="baseline-star_rate-18px-7" data-name="baseline-star_rate-18px" transform="translate(347 498)">
        <path id="Path_13-7" data-name="Path 13" d="M12.333,16.189l5.771,4.2L15.9,13.607,21.667,9.5H14.589l-2.256-7-2.256,7H3l5.771,4.107L6.562,20.389Z" transform="translate(1.667 1.389)" fill="#e2c404"/>
        <path id="Path_14-7" data-name="Path 14" d="M0,0H28V28H0Z" fill="none"/>
      </g>
      <g id="baseline-star_rate-18px-8" data-name="baseline-star_rate-18px" transform="translate(347 498)">
        <path id="Path_13-8" data-name="Path 13" d="M12.333,16.189l5.771,4.2L15.9,13.607,21.667,9.5H14.589l-2.256-7-2.256,7H3l5.771,4.107L6.562,20.389Z" transform="translate(1.667 1.389)" fill="#e2c404"/>
        <path id="Path_14-8" data-name="Path 14" d="M0,0H28V28H0Z" fill="none"/>
      </g>
      <g id="baseline-star_rate-18px-9" data-name="baseline-star_rate-18px" transform="translate(351 502)">
        <path id="Path_13-9" data-name="Path 13" d="M9.667,12.278l4.122,3-1.578-4.844L16.333,7.5H11.278l-1.611-5-1.611,5H3l4.122,2.933L5.544,15.278Z" transform="translate(0.333 0.278)" fill="#e2c404"/>
        <path id="Path_14-9" data-name="Path 14" d="M0,0H20V20H0Z" fill="none"/>
      </g>
    </g>
    <g id="Group_49-4" data-name="Group 49" transform="translate(-79 200)">
      <g id="baseline-star_rate-18px-10" data-name="baseline-star_rate-18px" transform="translate(347 498)">
        <path id="Path_13-10" data-name="Path 13" d="M12.333,16.189l5.771,4.2L15.9,13.607,21.667,9.5H14.589l-2.256-7-2.256,7H3l5.771,4.107L6.562,20.389Z" transform="translate(1.667 1.389)" fill="#e2c404"/>
        <path id="Path_14-10" data-name="Path 14" d="M0,0H28V28H0Z" fill="none"/>
      </g>
      <g id="baseline-star_rate-18px-11" data-name="baseline-star_rate-18px" transform="translate(347 498)">
        <path id="Path_13-11" data-name="Path 13" d="M12.333,16.189l5.771,4.2L15.9,13.607,21.667,9.5H14.589l-2.256-7-2.256,7H3l5.771,4.107L6.562,20.389Z" transform="translate(1.667 1.389)" fill="#e2c404"/>
        <path id="Path_14-11" data-name="Path 14" d="M0,0H28V28H0Z" fill="none"/>
      </g>
      <g id="baseline-star_rate-18px-12" data-name="baseline-star_rate-18px" transform="translate(351 502)">
        <path id="Path_13-12" data-name="Path 13" d="M9.667,12.278l4.122,3-1.578-4.844L16.333,7.5H11.278l-1.611-5-1.611,5H3l4.122,2.933L5.544,15.278Z" transform="translate(0.333 0.278)" fill="#e2c404"/>
        <path id="Path_14-12" data-name="Path 14" d="M0,0H20V20H0Z" fill="none"/>
      </g>
    </g>
    <g id="Group_49-5" data-name="Group 49" transform="translate(-49 200)">
      <g id="baseline-star_rate-18px-13" data-name="baseline-star_rate-18px" transform="translate(347 498)">
        <path id="Path_13-13" data-name="Path 13" d="M12.333,16.189l5.771,4.2L15.9,13.607,21.667,9.5H14.589l-2.256-7-2.256,7H3l5.771,4.107L6.562,20.389Z" transform="translate(1.667 1.389)" fill="#e2c404"/>
        <path id="Path_14-13" data-name="Path 14" d="M0,0H28V28H0Z" fill="none"/>
      </g>
      <g id="baseline-star_rate-18px-14" data-name="baseline-star_rate-18px" transform="translate(347 498)">
        <path id="Path_13-14" data-name="Path 13" d="M12.333,16.189l5.771,4.2L15.9,13.607,21.667,9.5H14.589l-2.256-7-2.256,7H3l5.771,4.107L6.562,20.389Z" transform="translate(1.667 1.389)" fill="#e2c404"/>
        <path id="Path_14-14" data-name="Path 14" d="M0,0H28V28H0Z" fill="none"/>
      </g>
      <g id="baseline-star_rate-18px-15" data-name="baseline-star_rate-18px" transform="translate(351 502)">
        <path id="Path_13-15" data-name="Path 13" d="M9.667,12.278l4.122,3-1.578-4.844L16.333,7.5H11.278l-1.611-5-1.611,5H3l4.122,2.933L5.544,15.278Z" transform="translate(0.333 0.278)" fill="#e2c404"/>
        <path id="Path_14-15" data-name="Path 14" d="M0,0H20V20H0Z" fill="none"/>
      </g>
    </g>
  </g>
</svg>
