<svg xmlns="http://www.w3.org/2000/svg" width="38.049" height="37.733" viewBox="0 0 38.049 37.733">
  <g id="smile_3_grey" transform="translate(-187.042 -160.674)">
    <g id="Group_4880" data-name="Group 4880">
      <ellipse id="Ellipse_1" data-name="Ellipse 1" cx="18.866" cy="19.024" rx="18.866" ry="19.024" transform="translate(187.042 198.407) rotate(-90)" fill="#c7c7c7"/>
      <g id="Group_4771" data-name="Group 4771" transform="translate(198.358 183.497)">
        <path id="Path_8167" data-name="Path 8167" d="M-733.346,200.5a7.989,7.989,0,0,1-7.72-5.715.968.968,0,0,1,.676-1.19.967.967,0,0,1,1.19.676,6.074,6.074,0,0,0,5.855,4.295,6.2,6.2,0,0,0,5.919-4.346.969.969,0,0,1,1.2-.658.966.966,0,0,1,.661,1.193A8.109,8.109,0,0,1-733.346,200.5Z" transform="translate(741.101 -193.521)" fill="#403408"/>
      </g>
    </g>
    <g id="Group_4770" data-name="Group 4770" transform="translate(196.025 173.763)">
      <path id="Path_8165" data-name="Path 8165" d="M-748.159,164.009h0a1.386,1.386,0,0,1-1.382-1.382V159.31a1.386,1.386,0,0,1,1.382-1.382h0a1.386,1.386,0,0,1,1.382,1.382v3.317A1.386,1.386,0,0,1-748.159,164.009Z" transform="translate(749.541 -157.928)" fill="#403408"/>
      <path id="Path_8166" data-name="Path 8166" d="M-685.492,164.009h0a1.386,1.386,0,0,1-1.382-1.382V159.31a1.386,1.386,0,0,1,1.382-1.382h0a1.386,1.386,0,0,1,1.382,1.382v3.317A1.386,1.386,0,0,1-685.492,164.009Z" transform="translate(704.195 -157.928)" fill="#403408"/>
    </g>
  </g>
</svg>
