<svg xmlns="http://www.w3.org/2000/svg" width="15.617" height="10.736" viewBox="0 0 15.617 10.736"><defs><style>.a{fill:#fff;}</style></defs><g transform="translate(0 20.736) rotate(-90)"><path class="a" d="M28.5,60H26.55a.488.488,0,1,0,0,.976H28.5a.488.488,0,1,0,0-.976Z" transform="translate(-12.143 -45.359)"/><path class="a" d="M27.478,56H24.55a.488.488,0,1,0,0,.976h2.928a.488.488,0,1,0,0-.976Z" transform="translate(-10.631 -42.335)"/><path class="a" d="M15.368,0A5.344,5.344,0,0,0,10.1,6.373c.006.029.008.059.014.088a5.272,5.272,0,0,0,.272.89c.016.041.031.083.048.123a5.291,5.291,0,0,0,.416.779c.03.046.059.092.09.137a5.349,5.349,0,0,0,.534.66c.045.048.092.092.138.138s.1.1.153.153l.012.011A6.068,6.068,0,0,1,13.6,11.837a.474.474,0,0,0,.212.83s0,.021,0,.021h3.1s0-.013,0-.015a.473.473,0,0,0,.218-.853,6.076,6.076,0,0,1,1.818-2.466l.012-.013c.054-.048.1-.1.153-.153s.093-.091.139-.138a5.362,5.362,0,0,0,.534-.66c.031-.045.061-.091.09-.137a5.315,5.315,0,0,0,.416-.779c.018-.041.032-.082.048-.123a5.3,5.3,0,0,0,.272-.89c.006-.029.009-.059.014-.088A5.344,5.344,0,0,0,15.368,0Zm4.31,6.191-.011.072a4.28,4.28,0,0,1-.223.726l-.039.1a4.365,4.365,0,0,1-.34.636l-.073.111a4.427,4.427,0,0,1-.437.541l-.113.112-.079.08-.046.046-.234.218-.069.064-.02.019h0a6.761,6.761,0,0,0-1.858,2.8h-.264V9.107s0-.007,0-.011l1.344-1.344a.323.323,0,0,0,0-.456l-.235-.235a.323.323,0,0,0-.456,0L15.368,8.214,14.216,7.061a.323.323,0,0,0-.456,0l-.235.234a.323.323,0,0,0,0,.456l1.37,1.37v2.591H14.6a6.73,6.73,0,0,0-1.853-2.8l-.008-.008-.321-.291-.045-.046-.109-.109-.084-.084a4.35,4.35,0,0,1-.435-.538l-.075-.113a4.328,4.328,0,0,1-.355-.674l-.024-.063a4.232,4.232,0,0,1-.221-.716l-.01-.061,0-.02a4.392,4.392,0,1,1,8.619,0Z"/></g></svg>