<svg xmlns="http://www.w3.org/2000/svg" width="16" height="14" viewBox="0 0 16 14">
  <g id="List" transform="translate(-3 -1)">
    <path id="Path_8260" data-name="Path 8260" d="M16.872,1H5.128C3.955,1,3,1.6,3,2.33V3.67C3,4.4,3.955,5,5.128,5H16.872C18.045,5,19,4.4,19,3.67V2.33C19,1.6,18.045,1,16.872,1ZM17.4,3.67c0,.182-.237.33-.528.33H5.128C4.837,4,4.6,3.852,4.6,3.67V2.33c0-.182.237-.33.528-.33H16.872c.291,0,.528.148.528.33Z" transform="translate(0)" fill="#0e76b7"/>
    <path id="Path_8261" data-name="Path 8261" d="M16.872,6H5.128C3.955,6,3,6.6,3,7.33V8.67C3,9.4,3.955,10,5.128,10H16.872C18.045,10,19,9.4,19,8.67V7.33C19,6.6,18.045,6,16.872,6ZM17.4,8.67c0,.182-.237.33-.528.33H5.128C4.837,9,4.6,8.852,4.6,8.67V7.33c0-.182.237-.33.528-.33H16.872c.291,0,.528.148.528.33Z" transform="translate(0)" fill="#0e76b7"/>
    <path id="Path_8262" data-name="Path 8262" d="M16.872,11H5.128C3.955,11,3,11.6,3,12.33v1.34C3,14.4,3.955,15,5.128,15H16.872C18.045,15,19,14.4,19,13.67V12.33C19,11.6,18.045,11,16.872,11Zm.528,2.67c0,.182-.237.33-.528.33H5.128c-.291,0-.528-.148-.528-.33V12.33c0-.182.237-.33.528-.33H16.872c.291,0,.528.148.528.33Z" transform="translate(0)" fill="#0e76b7"/>
  </g>
</svg>
