<svg xmlns="http://www.w3.org/2000/svg" xmlns:xlink="http://www.w3.org/1999/xlink" width="38.312" height="38" viewBox="0 0 38.312 38">
  <defs>
    <clipPath id="clip-path">
      <path id="Path_8171" data-name="Path 8171" d="M-916.242,196.033a.583.583,0,0,0-.541.8,10.807,10.807,0,0,0,10.254,6.974,10.983,10.983,0,0,0,10.338-7.027.583.583,0,0,0-.542-.8Z" transform="translate(916.826 -195.977)" fill="none"/>
    </clipPath>
  </defs>
  <g id="smile_4" transform="translate(-0.002 0)">
    <ellipse id="Ellipse_2" data-name="Ellipse 2" cx="18.866" cy="19.023" rx="18.866" ry="19.023" transform="translate(0.268 38) rotate(-90.404)" fill="#ffd21f"/>
    <g id="Group_4767" data-name="Group 4767" transform="translate(9.116 13.223)">
      <path id="Path_8168" data-name="Path 8168" d="M-914.366,164.009h0a1.386,1.386,0,0,1-1.382-1.382V159.31a1.386,1.386,0,0,1,1.382-1.382h0a1.386,1.386,0,0,1,1.382,1.382v3.317A1.386,1.386,0,0,1-914.366,164.009Z" transform="translate(915.748 -157.928)" fill="#403408"/>
      <path id="Path_8169" data-name="Path 8169" d="M-851.7,164.009h0a1.386,1.386,0,0,1-1.382-1.382V159.31a1.386,1.386,0,0,1,1.382-1.382h0a1.386,1.386,0,0,1,1.382,1.382v3.317A1.386,1.386,0,0,1-851.7,164.009Z" transform="translate(870.402 -157.928)" fill="#403408"/>
    </g>
    <g id="Group_4768" data-name="Group 4768" transform="translate(8.818 23.623)">
      <path id="Path_8170" data-name="Path 8170" d="M-916.242,196.033a.583.583,0,0,0-.541.8,10.807,10.807,0,0,0,10.254,6.974,10.983,10.983,0,0,0,10.338-7.027.583.583,0,0,0-.542-.8Z" transform="translate(916.826 -195.977)" fill="#403408"/>
      <g id="Group_4702" data-name="Group 4702" transform="translate(0)">
        <g id="Group_4701" data-name="Group 4701" clip-path="url(#clip-path)">
          <ellipse id="Ellipse_3" data-name="Ellipse 3" cx="7.324" cy="3.973" rx="7.324" ry="3.973" transform="translate(2.867 3.223)" fill="#ff5a58"/>
        </g>
      </g>
    </g>
  </g>
</svg>
