<svg id="smile_5" xmlns="http://www.w3.org/2000/svg" xmlns:xlink="http://www.w3.org/1999/xlink" width="38.049" height="37.733" viewBox="0 0 38.049 37.733">
  <defs>
    <clipPath id="clip-path">
      <path id="Path_8185" data-name="Path 8185" d="M-1082.449,196.033a.583.583,0,0,0-.54.8,10.806,10.806,0,0,0,10.254,6.974,10.983,10.983,0,0,0,10.338-7.027.583.583,0,0,0-.542-.8Z" transform="translate(1083.033 -195.977)" fill="none"/>
    </clipPath>
  </defs>
  <g id="Group_4763" data-name="Group 4763" transform="translate(0)">
    <path id="Path_8172" data-name="Path 8172" d="M-1076.412,129.552a18.958,18.958,0,0,1-19.609,18.269,18.933,18.933,0,0,1-18.421-19.445,18.957,18.957,0,0,1,19.608-18.269A18.935,18.935,0,0,1-1076.412,129.552Z" transform="translate(1114.452 -110.097)" fill="#ffd21f"/>
  </g>
  <g id="Group_4764" data-name="Group 4764" transform="translate(6.456 10.666)">
    <g id="Group_4705" data-name="Group 4705" transform="translate(17.873 0)">
      <path id="Path_8173" data-name="Path 8173" d="M-1025.209,149.227a2,2,0,0,1,2.429.8,2,2,0,0,1,2.454-.719,2.08,2.08,0,0,1,.9,2.954,15.836,15.836,0,0,1-2.885,3.278.8.8,0,0,1-1.117-.018,15.862,15.862,0,0,1-2.777-3.37A2.081,2.081,0,0,1-1025.209,149.227Z" transform="translate(1026.429 -149.08)" fill="#ff5a58"/>
    </g>
    <g id="Group_4706" data-name="Group 4706" transform="translate(0 0)">
      <path id="Path_8174" data-name="Path 8174" d="M-1089.876,149.227a2,2,0,0,1,2.429.8,2,2,0,0,1,2.454-.719,2.08,2.08,0,0,1,.9,2.954,15.838,15.838,0,0,1-2.885,3.278.8.8,0,0,1-1.117-.018,15.852,15.852,0,0,1-2.777-3.37A2.081,2.081,0,0,1-1089.876,149.227Z" transform="translate(1091.096 -149.08)" fill="#ff5a58"/>
    </g>
  </g>
  <g id="Group_4765" data-name="Group 4765" transform="translate(8.684 23.488)">
    <path id="Path_8184" data-name="Path 8184" d="M-1082.449,196.033a.583.583,0,0,0-.54.8,10.806,10.806,0,0,0,10.254,6.974,10.983,10.983,0,0,0,10.338-7.027.583.583,0,0,0-.542-.8Z" transform="translate(1083.033 -195.977)" fill="#403408"/>
    <g id="Group_4719" data-name="Group 4719" transform="translate(0)">
      <g id="Group_4718" data-name="Group 4718" clip-path="url(#clip-path)">
        <ellipse id="Ellipse_4" data-name="Ellipse 4" cx="7.324" cy="3.973" rx="7.324" ry="3.973" transform="translate(2.867 3.223)" fill="#ff5a58"/>
      </g>
    </g>
  </g>
</svg>
