<svg xmlns="http://www.w3.org/2000/svg" width="38.049" height="37.733" viewBox="0 0 38.049 37.733">
  <g id="smile_1_grey" transform="translate(-283.084 -160.674)">
    <g id="Group_4709" data-name="Group 4709" transform="translate(283.084 160.674)">
      <g id="Group_4708" data-name="Group 4708">
        <path id="Path_8175" data-name="Path 8175" d="M-411.576,128.964A18.946,18.946,0,0,1-430.6,147.831a18.946,18.946,0,0,1-19.024-18.866A18.946,18.946,0,0,1-430.6,110.1,18.946,18.946,0,0,1-411.576,128.964Z" transform="translate(449.625 -110.098)" fill="#c7c7c7"/>
      </g>
    </g>
    <g id="Group_4710" data-name="Group 4710" transform="translate(310.822 180.484)">
      <path id="Path_8176" data-name="Path 8176" d="M-343.955,189.041a2.657,2.657,0,0,1-2.658,2.656,2.657,2.657,0,0,1-2.657-2.656c0-1.468,2.657-6.478,2.657-6.478S-343.955,187.573-343.955,189.041Z" transform="translate(349.27 -182.563)" fill="#626262"/>
    </g>
    <g id="Group_4713" data-name="Group 4713" transform="translate(289.89 173.885)">
      <g id="Group_4711" data-name="Group 4711" transform="translate(17.344)">
        <path id="Path_8177" data-name="Path 8177" d="M-358.718,163.237a3.323,3.323,0,0,1-2.44-.958,4.407,4.407,0,0,1-1.1-2.953.969.969,0,0,1,.986-.948.968.968,0,0,1,.948.986,2.492,2.492,0,0,0,.548,1.566,1.407,1.407,0,0,0,1.053.373,1.411,1.411,0,0,0,1.06-.38,2.623,2.623,0,0,0,.564-1.59.967.967,0,0,1,.956-.979.973.973,0,0,1,.979.956,4.47,4.47,0,0,1-1.122,2.973A3.334,3.334,0,0,1-358.718,163.237Z" transform="translate(362.253 -158.354)" fill="#403408"/>
      </g>
      <g id="Group_4712" data-name="Group 4712">
        <path id="Path_8178" data-name="Path 8178" d="M-421.468,163.237a3.323,3.323,0,0,1-2.44-.958,4.407,4.407,0,0,1-1.1-2.953.964.964,0,0,1,.986-.948.967.967,0,0,1,.948.986,2.493,2.493,0,0,0,.548,1.566,1.407,1.407,0,0,0,1.053.373,1.411,1.411,0,0,0,1.06-.38,2.624,2.624,0,0,0,.564-1.59.967.967,0,0,1,.956-.979.973.973,0,0,1,.979.956,4.469,4.469,0,0,1-1.122,2.973A3.334,3.334,0,0,1-421.468,163.237Z" transform="translate(425.003 -158.354)" fill="#403408"/>
      </g>
    </g>
    <g id="Group_4714" data-name="Group 4714" transform="translate(294.324 180.297)">
      <path id="Path_8179" data-name="Path 8179" d="M-407.993,188.8a.962.962,0,0,1-.266-.038.967.967,0,0,1-.664-1.2,8.109,8.109,0,0,1,7.778-5.746,7.988,7.988,0,0,1,7.72,5.715.968.968,0,0,1-.675,1.19.968.968,0,0,1-1.19-.676,6.073,6.073,0,0,0-5.855-4.295,6.248,6.248,0,0,0-5.918,4.343A.967.967,0,0,1-407.993,188.8Z" transform="translate(408.961 -181.824)" fill="#403408"/>
    </g>
  </g>
</svg>
