<svg id="Layer_1" data-name="Layer 1" xmlns="http://www.w3.org/2000/svg" xmlns:xlink="http://www.w3.org/1999/xlink" viewBox="0 0 26 26"><defs><style>.cls-1{fill:none;}.cls-2{fill:#fff;}.cls-3{fill:#ddd;}.cls-4{clip-path:url(#clip-path);}.cls-5{fill:#003385;}</style><clipPath id="clip-path"><polygon class="cls-1" points="11 26 11 15 0 15 0 11 11 11 11 1 15 1 15 11 25 11 25 15 15 15 15 26 11 26"/></clipPath></defs><title>flags</title><g id="Group_4714" data-name="Group 4714"><g id="Path_8576-2" data-name="Path 8576-2"><path class="cls-2" d="M13,25.5A12.5,12.5,0,0,1,4.16,4.16,12.5,12.5,0,0,1,21.84,21.84,12.42,12.42,0,0,1,13,25.5Z"/><path class="cls-3" d="M13,1A12,12,0,1,0,25,13,12,12,0,0,0,13,1m0-1A13,13,0,0,1,26,13,13,13,0,0,1,13,26,13,13,0,0,1,0,13,13,13,0,0,1,13,0Z"/></g><g class="cls-4"><g id="Mask_Group_3" data-name="Mask Group 3"><circle id="Ellipse_1060" data-name="Ellipse 1060" class="cls-5" cx="13" cy="13" r="12"/></g></g></g></svg>