<svg id="Layer_1" data-name="Layer 1" xmlns="http://www.w3.org/2000/svg" xmlns:xlink="http://www.w3.org/1999/xlink" viewBox="0 0 26 26"><defs><style>.cls-1{fill:none;}.cls-2{clip-path:url(#clip-path);}.cls-3{fill:#00237c;}.cls-4{fill:#fff;}.cls-5{fill:#cf142b;}.cls-6{fill:#ddd;}</style><clipPath id="clip-path"><path class="cls-1" d="M13,25.5A12.5,12.5,0,0,1,4.16,4.16,12.5,12.5,0,0,1,21.84,21.84,12.42,12.42,0,0,1,13,25.5Z"/></clipPath></defs><title>flags</title><g class="cls-2"><g id="Mask_Group_2" data-name="Mask Group 2"><g id="Group_4485" data-name="Group 4485"><g id="Group_4475" data-name="Group 4475"><rect id="Rectangle_17405" data-name="Rectangle 17405" class="cls-3" x="-8.66" y="-1.5" width="17.98" height="9.62"/><g id="Group_4473" data-name="Group 4473"><path id="Path_8563" data-name="Path 8563" class="cls-4" d="M-3.72-1.5H-8.65v3l24.08,15.9L21.29,15Z"/></g><g id="Group_4474" data-name="Group 4474"><path id="Path_8564" data-name="Path 8564" class="cls-5" d="M-8.66-1.25V.83l24.4,16.11,1-1.45Z"/></g></g><g id="Group_4478" data-name="Group 4478"><rect id="Rectangle_17406" data-name="Rectangle 17406" class="cls-3" x="16.67" y="-1.5" width="17.98" height="9.62"/><g id="Group_4476" data-name="Group 4476"><path id="Path_8565" data-name="Path 8565" class="cls-4" d="M29.72-1.5h4.94v3L10.58,17.42,4.72,15Z"/></g><g id="Group_4477" data-name="Group 4477"><path id="Path_8566" data-name="Path 8566" class="cls-5" d="M34.66-1.25V.83L10.26,16.94l-1-1.45Z"/></g></g><g id="Group_4481" data-name="Group 4481"><rect id="Rectangle_17407" data-name="Rectangle 17407" class="cls-3" x="16.67" y="17.88" width="17.98" height="9.62"/><g id="Group_4479" data-name="Group 4479"><path id="Path_8567" data-name="Path 8567" class="cls-4" d="M29.72,27.5h4.94v-3L10.58,8.57,4.72,11Z"/></g><g id="Group_4480" data-name="Group 4480"><path id="Path_8568" data-name="Path 8568" class="cls-5" d="M34.66,27.25V25.17L10.26,9.06l-1,1.44Z"/></g></g><g id="Group_4484" data-name="Group 4484"><rect id="Rectangle_17408" data-name="Rectangle 17408" class="cls-3" x="-8.66" y="17.88" width="17.98" height="9.62"/><g id="Group_4482" data-name="Group 4482"><path id="Path_8569" data-name="Path 8569" class="cls-4" d="M-3.72,27.5H-8.65v-3L15.43,8.57,21.28,11Z"/></g><g id="Group_4483" data-name="Group 4483"><path id="Path_8570" data-name="Path 8570" class="cls-5" d="M-8.66,27.25V25.17L15.74,9.06l1,1.44Z"/></g></g><path id="Path_8571" data-name="Path 8571" class="cls-4" d="M34.66,8.12H16.71V-1.5H9.21V8.12H-8.66v9.54H9.21V27.5h7.5V17.66H34.66Z"/><path id="Path_8572" data-name="Path 8572" class="cls-5" d="M34.66,10.07H15.12V-1.5H10.81V10.07H-8.66v5.64H10.8V27.5h4.32V15.71H34.66Z"/></g></g></g><path class="cls-6" d="M13,1A12,12,0,1,0,25,13,12,12,0,0,0,13,1m0-1A13,13,0,0,1,26,13,13,13,0,0,1,13,26,13,13,0,0,1,0,13,13,13,0,0,1,13,0Z"/></svg>